# WaveFront *.obj file (generated by Cheetah3D)

mtllib column_round_opposite_faces_half.mtl

g Box
v 0.000000 0.000000 1.000000
v 0.000000 1.000000 1.000000
v 1.000000 1.000000 1.000000
v 1.000000 0.000000 1.000000
v 1.000000 0.000000 0.000000
v 1.000000 1.000000 0.000000
v 0.000000 1.000000 0.000000
v 0.000000 0.000000 0.000000

vt 0.000000 0.000000
vt 0.000000 1.000000
vt 1.000000 1.000000
vt 1.000000 0.000000

vn 0.000000 1.000000 0.000000
vn 1.000000 0.000000 0.000000
vn -1.000000 0.000000 0.000000

usemtl Material
f 3/4/1 6/3/1 7/2/1 2/1/1
f 5/4/2 6/3/2 3/2/2 4/1/2
f 1/4/3 2/3/3 7/2/3 8/1/3

usemtl default

