# WaveFront *.obj file (generated by Cheetah3D)

mtllib column_round_opposite_faces.mtl

g Box
v 0.000000 0.000000 1.000000
v 0.000000 1.000000 1.000000
v 1.000000 1.000000 1.000000
v 1.000000 0.000000 1.000000
v 1.000000 0.000000 0.000000
v 1.000000 1.000000 0.000000
v 0.000000 1.000000 0.000000
v 0.000000 0.000000 0.000000

vt 0.000000 0.000000
vt 0.000000 1.000000
vt 1.000000 1.000000
vt 1.000000 0.000000

vn -1.000000 0.000000 0.000000
vn 1.000000 0.000000 0.000000

usemtl Material
f 1/4/1 2/3/1 7/2/1 8/1/1
f 5/4/2 6/3/2 3/2/2 4/1/2

usemtl default

