# WaveFront *.obj file (generated by Cheetah3D)

mtllib column_round_single_face_half.mtl

g Box
v 1.000000 0.000000 -0.000000
v 1.000000 1.000000 -0.000000
v -0.000000 1.000000 0.000000
v -0.000000 0.000000 0.000000
v 0.000000 0.000000 1.000000
v 0.000000 1.000000 1.000000
v 1.000000 1.000000 1.000000
v 1.000000 0.000000 1.000000

vt 0.000000 0.000000
vt 0.000000 1.000000
vt 1.000000 1.000000
vt 1.000000 0.000000

vn -0.000000 0.000000 -1.000000
vn -0.000000 1.000000 0.000000

usemtl Material
f 4/4/1 3/3/1 2/2/1 1/1/1
f 3/4/2 6/3/2 7/2/2 2/1/2

usemtl default

