# WaveFront *.obj file (generated by Cheetah3D)

mtllib column_round_three_faces_full.mtl

g Cylinder
v 0.500000 0.000000 0.500000
v 0.000000 0.000000 0.500000
v 0.038060 0.000000 0.691342
v 0.146447 0.000000 0.853553
v 0.308658 0.000000 0.961940
v 0.500000 0.000000 1.000000
v 0.691342 0.000000 0.961940
v 0.853553 0.000000 0.853553
v 0.961940 0.000000 0.691342
v 1.000000 0.000000 0.500000
v 0.961940 0.000000 0.308658
v 0.853553 0.000000 0.146447
v 0.691342 0.000000 0.038060
v 0.500000 0.000000 0.000000
v 0.308658 0.000000 0.038060
v 0.146446 0.000000 0.146447
v 0.038060 0.000000 0.308658
v 0.038060 1.000000 0.691342
v 0.000000 1.000000 0.500000
v 0.500000 1.000000 0.500000
v 0.146447 1.000000 0.853553
v 0.308658 1.000000 0.961940
v 0.500000 1.000000 1.000000
v 0.691342 1.000000 0.961940
v 0.853553 1.000000 0.853553
v 0.961940 1.000000 0.691342
v 1.000000 1.000000 0.500000
v 0.961940 1.000000 0.308658
v 0.853553 1.000000 0.146447
v 0.691342 1.000000 0.038060
v 0.500000 1.000000 0.000000
v 0.308658 1.000000 0.038060
v 0.146446 1.000000 0.146447
v 0.038060 1.000000 0.308658

vt 0.308658 0.961940
vt 0.500000 1.000000
vt 0.500000 0.500000
vt 0.146447 0.853553
vt 0.038060 0.691342
vt 0.000000 0.500000
vt 0.038060 0.308658
vt 0.146447 0.146446
vt 0.500000 0.000000
vt 0.308658 0.038060
vt 0.750000 0.000000
vt 0.750000 1.000000
vt 0.812500 1.000000
vt 0.812500 0.000000
vt 0.875000 0.000000
vt 0.875000 1.000000
vt 0.937500 1.000000
vt 0.937500 0.000000
vt 0.625000 0.000000
vt 0.625000 1.000000
vt 0.687500 1.000000
vt 0.687500 0.000000
vt 0.500000 1.000000
vt 0.562500 1.000000
vt 0.562500 0.000000
vt 1.000000 1.000000
vt 1.000000 0.000000

vn 0.000000 1.000000 0.000000
vn 0.000000 -1.000000 0.000000
vn -0.000000 0.000000 -1.000000
vn -0.382684 0.000000 -0.923879
vn -0.707107 0.000000 -0.707107
vn -0.923880 0.000000 -0.382683
vn 0.707107 0.000000 -0.707107
vn 0.382683 0.000000 -0.923880
vn 0.980785 0.000000 -0.195090
vn 0.923880 0.000000 -0.382683
vn -0.980785 0.000000 -0.195090

usemtl Material
f 20/3/1 27/2/1 28/1/1
f 20/3/1 28/1/1 29/4/1
f 20/3/1 29/4/1 30/5/1
f 20/3/1 30/5/1 31/6/1
f 20/3/1 31/6/1 32/7/1
f 20/3/1 32/7/1 33/8/1
f 20/3/1 34/10/1 19/9/1
f 20/3/1 33/8/1 34/10/1
f 11/1/2 10/2/2 1/3/2
f 12/4/2 11/1/2 1/3/2
f 13/5/2 12/4/2 1/3/2
f 14/6/2 13/5/2 1/3/2
f 15/7/2 14/6/2 1/3/2
f 16/8/2 15/7/2 1/3/2
f 17/10/2 16/8/2 1/3/2
f 2/9/2 17/10/2 1/3/2
f 15/14/4 32/13/4 31/12/3 14/11/3
f 17/18/6 34/17/6 33/16/5 16/15/5
f 13/22/8 30/21/8 29/20/7 12/19/7
f 11/25/10 28/24/10 27/23/9 10/9/9
f 12/19/7 29/20/7 28/24/10 11/25/10
f 14/11/3 31/12/3 30/21/8 13/22/8
f 16/15/5 33/16/5 32/13/4 15/14/4
f 2/27/11 19/26/11 34/17/6 17/18/6

usemtl default

g Box
v 0.000000 0.000000 1.000000
v 0.000000 1.000000 1.000000
v 1.000000 1.000000 1.000000
v 1.000000 0.000000 1.000000
v 1.000000 0.000000 0.500000
v 1.000000 1.000000 0.500000
v 0.000000 1.000000 0.500000
v 0.000000 0.000000 0.500000

vt 0.000000 0.000000
vt 0.000000 1.000000
vt 1.000000 1.000000
vt 1.000000 0.000000

vn 0.000000 0.000000 1.000000
vn 0.000000 -1.000000 0.000000
vn -1.000000 0.000000 0.000000
vn 1.000000 0.000000 0.000000
vn 0.000000 1.000000 0.000000

usemtl Material
f 38/31/12 37/30/12 36/29/12 35/28/12
f 39/31/13 38/30/13 35/29/13 42/28/13
f 35/31/14 36/30/14 41/29/14 42/28/14
f 39/31/15 40/30/15 37/29/15 38/28/15
f 37/31/16 40/30/16 41/29/16 36/28/16

usemtl default

