# WaveFront *.obj file (generated by Cheetah3D)

mtllib column_round_four_faces.mtl

g Cylinder
v 0.500000 0.000000 0.500000
v 0.500000 0.000000 1.000000
v 0.691342 0.000000 0.961940
v 0.853553 0.000000 0.853553
v 0.961940 0.000000 0.691342
v 1.000000 0.000000 0.500000
v 0.961940 0.000000 0.308658
v 0.853553 0.000000 0.146447
v 0.691342 0.000000 0.038060
v 0.500000 0.000000 0.000000
v 0.308658 0.000000 0.038060
v 0.146447 0.000000 0.146447
v 0.038060 0.000000 0.308658
v 0.000000 0.000000 0.500000
v 0.038060 0.000000 0.691342
v 0.146447 0.000000 0.853554
v 0.308658 0.000000 0.961940
v 0.691342 1.000000 0.961940
v 0.500000 1.000000 1.000000
v 0.500000 1.000000 0.500000
v 0.853553 1.000000 0.853553
v 0.961940 1.000000 0.691342
v 1.000000 1.000000 0.500000
v 0.961940 1.000000 0.308658
v 0.853553 1.000000 0.146447
v 0.691342 1.000000 0.038060
v 0.500000 1.000000 0.000000
v 0.308658 1.000000 0.038060
v 0.146447 1.000000 0.146447
v 0.038060 1.000000 0.308658
v 0.000000 1.000000 0.500000
v 0.038060 1.000000 0.691342
v 0.146447 1.000000 0.853554
v 0.308658 1.000000 0.961940

vt 0.000000 0.000000
vt 0.000000 1.000000
vt 0.062500 1.000000
vt 0.062500 0.000000
vt 0.937500 0.000000
vt 0.937500 1.000000
vt 1.000000 1.000000
vt 1.000000 0.000000
vt 0.875000 0.000000
vt 0.875000 1.000000
vt 0.812500 0.000000
vt 0.812500 1.000000
vt 0.750000 0.000000
vt 0.750000 1.000000
vt 0.687500 0.000000
vt 0.687500 1.000000
vt 0.625000 0.000000
vt 0.625000 1.000000
vt 0.562500 0.000000
vt 0.562500 1.000000
vt 0.500000 0.000000
vt 0.500000 1.000000
vt 0.437500 0.000000
vt 0.437500 1.000000
vt 0.375000 0.000000
vt 0.375000 1.000000
vt 0.312500 0.000000
vt 0.312500 1.000000
vt 0.250000 0.000000
vt 0.250000 1.000000
vt 0.187500 0.000000
vt 0.187500 1.000000
vt 0.125000 0.000000
vt 0.125000 1.000000

vn 0.000000 0.000000 1.000000
vn 0.382683 -0.000000 0.923880
vn -0.382683 0.000000 0.923880
vn -0.707107 0.000000 0.707107
vn -0.923879 0.000000 0.382684
vn -1.000000 0.000000 0.000000
vn -0.923880 0.000000 -0.382683
vn -0.707107 0.000000 -0.707107
vn -0.382683 0.000000 -0.923880
vn -0.000000 0.000000 -1.000000
vn 0.382683 0.000000 -0.923880
vn 0.707107 0.000000 -0.707107
vn 0.923880 0.000000 -0.382683
vn 1.000000 -0.000000 0.000000
vn 0.923880 0.000000 0.382683
vn 0.707107 -0.000000 0.707107

usemtl Material
f 3/4/2 18/3/2 19/2/1 2/1/1
f 2/8/1 19/7/1 34/6/3 17/5/3
f 17/5/3 34/6/3 33/10/4 16/9/4
f 16/9/4 33/10/4 32/12/5 15/11/5
f 15/11/5 32/12/5 31/14/6 14/13/6
f 14/13/6 31/14/6 30/16/7 13/15/7
f 13/15/7 30/16/7 29/18/8 12/17/8
f 12/17/8 29/18/8 28/20/9 11/19/9
f 11/19/9 28/20/9 27/22/10 10/21/10
f 10/21/10 27/22/10 26/24/11 9/23/11
f 9/23/11 26/24/11 25/26/12 8/25/12
f 8/25/12 25/26/12 24/28/13 7/27/13
f 7/27/13 24/28/13 23/30/14 6/29/14
f 6/29/14 23/30/14 22/32/15 5/31/15
f 5/31/15 22/32/15 21/34/16 4/33/16
f 4/33/16 21/34/16 18/3/2 3/4/2

usemtl default

