mtllib models/block/col_round.mtl
usemtl all

g Box
v 1.000000 0.000000 -0.000000
v 1.000000 1.000000 -0.000000
v -0.000000 1.000000 0.000000
v -0.000000 0.000000 0.000000
v 0.000000 0.000000 1.000000
v 0.000000 1.000000 1.000000
v 1.000000 1.000000 1.000000
v 1.000000 0.000000 1.000000

vt 0.000000 0.000000
vt 0.000000 1.000000
vt 1.000000 1.000000
vt 1.000000 0.000000

vn -0.000000 0.000000 -1.000000
vn 0.000000 -1.000000 0.000000
vn -0.000000 1.000000 0.000000

f 4/4/1 3/3/1 2/2/1 1/1/1
f 5/4/2 4/3/2 1/2/2 8/1/2
f 3/4/3 6/3/3 7/2/3 2/1/3



