mtllib models/block/col_round.mtl
usemtl all

g Cylinder
v 0.500000 0.000000 0.500000
v 0.000000 0.000000 0.500000
v 0.038060 0.000000 0.691342
v 0.146447 0.000000 0.853553
v 0.308658 0.000000 0.961940
v 0.500000 0.000000 1.000000
v 0.691342 0.000000 0.961940
v 0.853553 0.000000 0.853553
v 0.961940 0.000000 0.691342
v 1.000000 0.000000 0.500000
v 0.961940 0.000000 0.308658
v 0.853553 0.000000 0.146447
v 0.691342 0.000000 0.038060
v 0.500000 0.000000 0.000000
v 0.308658 0.000000 0.038060
v 0.146446 0.000000 0.146447
v 0.038060 0.000000 0.308658
v 0.038060 1.000000 0.691342
v 0.000000 1.000000 0.500000
v 0.500000 1.000000 0.500000
v 0.146447 1.000000 0.853553
v 0.308658 1.000000 0.961940
v 0.500000 1.000000 1.000000
v 0.691342 1.000000 0.961940
v 0.853553 1.000000 0.853553
v 0.961940 1.000000 0.691342
v 1.000000 1.000000 0.500000
v 0.961940 1.000000 0.308658
v 0.853553 1.000000 0.146447
v 0.691342 1.000000 0.038060
v 0.500000 1.000000 0.000000
v 0.308658 1.000000 0.038060
v 0.146446 1.000000 0.146447
v 0.038060 1.000000 0.308658

vt 0.625000 0.000000
vt 0.625000 1.000000
vt 0.687500 1.000000
vt 0.687500 0.000000
vt 0.875000 0.000000
vt 0.875000 1.000000
vt 0.937500 1.000000
vt 0.937500 0.000000
vt 0.750000 0.000000
vt 0.750000 1.000000
vt 0.812500 1.000000
vt 0.812500 0.000000
vt 0.500000 0.000000
vt 0.500000 1.000000
vt 0.562500 1.000000
vt 0.562500 0.000000
vt 1.000000 1.000000
vt 1.000000 0.000000

vn 0.707107 0.000000 -0.707107
vn 0.382683 0.000000 -0.923880
vn -0.707107 0.000000 -0.707107
vn -0.923880 0.000000 -0.382683
vn -0.000000 0.000000 -1.000000
vn -0.382684 0.000000 -0.923879
vn 0.980785 0.000000 -0.195090
vn 0.923880 0.000000 -0.382683
vn -0.980785 0.000000 -0.195090

f 13/4/2 30/3/2 29/2/1 12/1/1
f 17/8/4 34/7/4 33/6/3 16/5/3
f 15/12/6 32/11/6 31/10/5 14/9/5
f 11/16/8 28/15/8 27/14/7 10/13/7
f 12/1/1 29/2/1 28/15/8 11/16/8
f 2/18/9 19/17/9 34/7/4 17/8/4
f 14/9/5 31/10/5 30/3/2 13/4/2
f 16/5/3 33/6/3 32/11/6 15/12/6


g Box
v 0.000000 0.000000 1.000000
v 0.000000 1.000000 1.000000
v 1.000000 1.000000 1.000000
v 1.000000 0.000000 1.000000
v 1.000000 0.000000 0.500000
v 1.000000 1.000000 0.500000
v 0.000000 1.000000 0.500000
v 0.000000 0.000000 0.500000

vt 0.000000 0.000000
vt 0.000000 1.000000
vt 1.000000 1.000000
vt 1.000000 0.000000

vn 0.000000 0.000000 1.000000
vn 1.000000 0.000000 0.000000
vn -1.000000 0.000000 0.000000

f 38/22/10 37/21/10 36/20/10 35/19/10
f 39/22/11 40/21/11 37/20/11 38/19/11
f 35/22/12 36/21/12 41/20/12 42/19/12




