mtllib models/block/cylinder.mtl
usemtl all

g Cylinder
v 0.500000 0.000000 0.500000
v 0.500000 0.000000 1.000000
v 0.691342 0.000000 0.961940
v 0.853553 0.000000 0.853553
v 0.961940 0.000000 0.691342
v 1.000000 0.000000 0.500000
v 0.961940 0.000000 0.308658
v 0.853553 0.000000 0.146447
v 0.691342 0.000000 0.038060
v 0.500000 0.000000 0.000000
v 0.308658 0.000000 0.038060
v 0.146447 0.000000 0.146447
v 0.038060 0.000000 0.308658
v 0.000000 0.000000 0.500000
v 0.038060 0.000000 0.691342
v 0.146447 0.000000 0.853554
v 0.308658 0.000000 0.961940
v 0.691342 1.000000 0.961940
v 0.500000 1.000000 1.000000
v 0.500000 1.000000 0.500000
v 0.853553 1.000000 0.853553
v 0.961940 1.000000 0.691342
v 1.000000 1.000000 0.500000
v 0.961940 1.000000 0.308658
v 0.853553 1.000000 0.146447
v 0.691342 1.000000 0.038060
v 0.500000 1.000000 0.000000
v 0.308658 1.000000 0.038060
v 0.146447 1.000000 0.146447
v 0.038060 1.000000 0.308658
v 0.000000 1.000000 0.500000
v 0.038060 1.000000 0.691342
v 0.146447 1.000000 0.853554
v 0.308658 1.000000 0.961940

vt 0.500000 0.500000
vt 0.500000 0.000000
vt 0.691342 0.038060
vt 0.853553 0.146447
vt 0.961940 0.308658
vt 1.000000 0.500000
vt 0.961940 0.691342
vt 0.853553 0.853553
vt 0.691342 0.961940
vt 0.500000 1.000000
vt 0.308658 0.961940
vt 0.146447 0.853553
vt 0.038060 0.691342
vt 0.000000 0.500000
vt 0.038060 0.308658
vt 0.146447 0.146446
vt 0.308658 0.038060
vt 0.000000 0.000000
vt 0.000000 1.000000
vt 0.062500 1.000000
vt 0.062500 0.000000
vt 0.125000 1.000000
vt 0.125000 0.000000
vt 0.187500 1.000000
vt 0.187500 0.000000
vt 0.250000 1.000000
vt 0.250000 0.000000
vt 0.312500 1.000000
vt 0.312500 0.000000
vt 0.375000 1.000000
vt 0.375000 0.000000
vt 0.437500 1.000000
vt 0.437500 0.000000
vt 0.500000 1.000000
vt 0.562500 1.000000
vt 0.562500 0.000000
vt 0.625000 1.000000
vt 0.625000 0.000000
vt 0.687500 1.000000
vt 0.687500 0.000000
vt 0.750000 1.000000
vt 0.750000 0.000000
vt 0.812500 1.000000
vt 0.812500 0.000000
vt 0.875000 1.000000
vt 0.875000 0.000000
vt 0.937500 1.000000
vt 0.937500 0.000000
vt 1.000000 1.000000
vt 1.000000 0.000000

vn 0.000000 -1.000000 0.000000
vn 0.000000 1.000000 0.000000
vn 0.000000 0.000000 1.000000
vn 0.382683 -0.000000 0.923880
vn 0.707107 -0.000000 0.707107
vn 0.923880 0.000000 0.382683
vn 1.000000 -0.000000 0.000000
vn 0.923880 0.000000 -0.382683
vn 0.707107 0.000000 -0.707107
vn 0.382683 0.000000 -0.923880
vn -0.000000 0.000000 -1.000000
vn -0.382683 0.000000 -0.923880
vn -0.707107 0.000000 -0.707107
vn -0.923880 0.000000 -0.382683
vn -1.000000 0.000000 0.000000
vn -0.923879 0.000000 0.382684
vn -0.707107 0.000000 0.707107
vn -0.382683 0.000000 0.923880

f 3/3/1 2/2/1 1/1/1
f 4/4/1 3/3/1 1/1/1
f 5/5/1 4/4/1 1/1/1
f 6/6/1 5/5/1 1/1/1
f 7/7/1 6/6/1 1/1/1
f 8/8/1 7/7/1 1/1/1
f 9/9/1 8/8/1 1/1/1
f 10/10/1 9/9/1 1/1/1
f 11/11/1 10/10/1 1/1/1
f 12/12/1 11/11/1 1/1/1
f 13/13/1 12/12/1 1/1/1
f 14/14/1 13/13/1 1/1/1
f 15/15/1 14/14/1 1/1/1
f 16/16/1 15/15/1 1/1/1
f 17/17/1 16/16/1 1/1/1
f 2/2/1 17/17/1 1/1/1
f 20/1/2 19/2/2 18/3/2
f 20/1/2 18/3/2 21/4/2
f 20/1/2 21/4/2 22/5/2
f 20/1/2 22/5/2 23/6/2
f 20/1/2 23/6/2 24/7/2
f 20/1/2 24/7/2 25/8/2
f 20/1/2 25/8/2 26/9/2
f 20/1/2 26/9/2 27/10/2
f 20/1/2 27/10/2 28/11/2
f 20/1/2 28/11/2 29/12/2
f 20/1/2 29/12/2 30/13/2
f 20/1/2 30/13/2 31/14/2
f 20/1/2 31/14/2 32/15/2
f 20/1/2 32/15/2 33/16/2
f 20/1/2 33/16/2 34/17/2
f 20/1/2 34/17/2 19/2/2
f 3/21/4 18/20/4 19/19/3 2/18/3
f 4/23/5 21/22/5 18/20/4 3/21/4
f 5/25/6 22/24/6 21/22/5 4/23/5
f 6/27/7 23/26/7 22/24/6 5/25/6
f 7/29/8 24/28/8 23/26/7 6/27/7
f 8/31/9 25/30/9 24/28/8 7/29/8
f 9/33/10 26/32/10 25/30/9 8/31/9
f 10/2/11 27/34/11 26/32/10 9/33/10
f 11/36/12 28/35/12 27/34/11 10/2/11
f 12/38/13 29/37/13 28/35/12 11/36/12
f 13/40/14 30/39/14 29/37/13 12/38/13
f 14/42/15 31/41/15 30/39/14 13/40/14
f 15/44/16 32/43/16 31/41/15 14/42/15
f 16/46/17 33/45/17 32/43/16 15/44/16
f 17/48/18 34/47/18 33/45/17 16/46/17
f 2/50/3 19/49/3 34/47/18 17/48/18


